PathFileType	4	(X/Y/Z)	D:\Documents\my_script\MATLAB\opensim\convert_file_format\tsv_to_trc\CE_8km_M.tsv
DataRate	CameraRate	NumFrames	NumMarkers	Units	OrigDataRate	OrigDataStartFrame	OrigNumFrames
200	200	7	23	mm	200	7698	200
Frame#	Time	Top.Head			L.Acromium			R.Acromium			Sternum			L.ASIS			R.ASIS			V.Sacral			L.Knee.Lat			L.Knee.Med			L.Ankle.Lat			L.Ankle.Med			L.Heel			L.Toe.Lat			L.Toe.Med			L.Toe.Tip			R.Knee.Lat			R.Knee.Med			R.Ankle.Lat			R.Ankle.Med			R.Heel			R.Toe.Lat			R.Toe.Med			R.Toe.Tip		
		X1	Y1	Z1	X2	Y2	Z2	X3	Y3	Z3	X4	Y4	Z4	X5	Y5	Z5	X6	Y6	Z6	X7	Y7	Z7	X8	Y8	Z8	X9	Y9	Z9	X10	Y10	Z10	X11	Y11	Z11	X12	Y12	Z12	X13	Y13	Z13	X14	Y14	Z14	X15	Y15	Z15	X16	Y16	Z16	X17	Y17	Z17	X18	Y18	Z18	X19	Y19	Z19	X20	Y20	Z20	X21	Y21	Z21	X22	Y22	Z22	X23	Y23	Z23
7898	39.485	51.054	1719.918	402.599	253.723	1424.562	379.751	-145.976	1430.536	385.368	61.754	1379.189	481.337	208.815	929.326	412.047	-76.895	928.018	399.925	69.464	993.083	228.817	208.535	469.793	292.853	81.663	435.966	280.233	160.567	140.034	89.809	74.189	136.133	134.153	106.507	113.77	-10.241	198.965	50.155	158.499	91.102	46.204	205.068	144.105	46.12	254.503	-109.444	479.068	437.111	28.689	451.944	448.83	-53.627	181.094	179.184	23.691	182.335	234.007	14.08	185.119	93.755	-96.475	68.853	252.954	7.658	58.568	280.567	-46.088	54.885	321.927
7899	39.49	49.294	1723.291	402.703	252.698	1428.899	382.111	-146	1433.697	383.208	60.075	1382.762	481.536	208.239	931.614	413.054	-77.165	930.638	400.127	69.66	996.596	229.931	209.16	473.454	285.712	82.126	440.071	272.349	163.221	143.741	82.312	74.332	138.883	125.251	108.997	120.225	-17.641	199.616	50.696	148.197	91.736	46.709	194.325	144.458	46.026	243.542	-109.217	482.884	439.049	28.762	455.919	451.43	-52.545	173.226	187.903	24.849	178.059	249.4	15.638	174.247	108.843	-95.959	64.902	271.204	7.835	55.978	300.256	-46.134	53.99	341.159
7900	39.495	47.462	1726.549	402.815	251.585	1433.169	384.404	-145.988	1436.741	381.221	58.387	1386.247	481.73	207.697	933.839	414.073	-77.451	933.065	400.462	69.723	1000.068	231.118	209.834	477.212	278.558	82.591	444.173	264.717	166.096	147.575	75.136	75.372	141.696	116.832	110.04	126.505	-25.281	200.249	51.37	138.058	92.479	47.245	183.749	144.843	45.919	232.658	-108.994	486.546	440.68	28.844	459.741	453.765	-51.612	165.323	196.532	25.839	173.817	264.732	14.961	162.845	124.437	-95.558	61.237	289.657	7.809	53.683	319.956	-46.41	53.486	360.479
7901	39.5	44.624	1729.266	403.304	250.382	1437.341	386.647	-145.993	1439.647	379.374	56.726	1389.633	481.934	207.148	935.996	415.068	-77.746	935.306	400.811	69.733	1003.385	232.308	210.545	481.087	271.516	83.033	448.196	257.349	167.973	151.273	67.831	76.086	144.201	108.708	110.974	132.912	-32.699	200.718	52.08	128.022	93.202	47.786	173.254	145.253	45.762	221.826	-108.791	489.993	442.035	28.959	463.371	455.846	-50.841	157.337	205.806	27.341	169.752	280.201	16.926	152.343	139.995	-95.275	57.911	308.32	7.643	51.841	339.856	-46.865	53.407	379.891
7902	39.505	41.778	1731.761	403.716	249.157	1441.402	388.842	-145.986	1442.395	377.667	55.109	1392.924	482.151	206.595	938.076	416.038	-78.06	937.343	401.189	69.672	1006.555	233.512	211.273	485.117	264.649	83.488	452.124	250.298	171.001	155.25	61.225	78.106	147.041	100.308	111.91	139.427	-39.809	201.336	52.855	118.085	93.953	48.293	162.933	145.671	45.561	211.045	-108.611	493.222	443.134	29.093	466.8	457.673	-50.505	150.669	220.456	28.649	165.763	295.639	17.99	142.076	156.312	-95.096	54.982	327.152	7.338	50.498	359.923	-47.462	53.792	399.353
7903	39.51	38.841	1734.096	404.191	247.884	1445.32	390.971	-146.006	1444.968	376.088	53.563	1396.015	482.376	206.032	940.064	416.974	-78.707	939.272	402.276	68.114	1009.787	234.341	211.934	489.24	257.995	83.942	455.908	243.596	174.149	159.269	54.94	80.317	149.989	92.236	112.928	146.07	-46.579	201.808	53.744	108.332	94.648	48.819	152.714	146.167	45.307	200.471	-108.449	496.191	443.995	29.207	469.989	459.847	-50.32	144.048	235.583	28.507	161.846	310.87	18.995	132.033	172.548	-95.045	52.49	346.145	6.928	49.679	380.052	-48.176	54.735	418.81
7904	39.515	35.866	1736.231	404.612	246.569	1449.068	393.031	-146.071	1447.333	374.662	51.986	1398.973	482.596	205.441	941.993	417.912	-79.414	941.108	403.453	66.362	1012.883	235.119	212.571	493.398	251.576	84.423	459.559	237.282	175.559	162.968	48.281	83.348	152.647	85.086	114.061	152.771	-53.022	202.301	54.752	98.742	95.319	49.362	142.612	146.672	44.973	190.003	-108.292	498.897	444.643	29.182	472.988	462.233	-50.437	139.53	255.42	28.181	158.278	326.167	19.909	122.327	189.122	-95.1	50.529	365.263	6.481	49.393	400.044	-48.962	56.261	438.201
